<svg id="visual" viewBox="0 0 960 540" width="960" height="540" xmlns="http://www.w3.org/2000/svg" xmlns:xlink="http://www.w3.org/1999/xlink" version="1.1"><rect x="0" y="0" width="960" height="540" fill="#FFFFFF"></rect><defs><linearGradient id="grad1_0" x1="43.8%" y1="0%" x2="100%" y2="100%"><stop offset="14.444444444444446%" stop-color="#cb0404" stop-opacity="1"></stop><stop offset="85.55555555555554%" stop-color="#cb0404" stop-opacity="1"></stop></linearGradient></defs><defs><linearGradient id="grad1_1" x1="43.8%" y1="0%" x2="100%" y2="100%"><stop offset="14.444444444444446%" stop-color="#cb0404" stop-opacity="1"></stop><stop offset="85.55555555555554%" stop-color="#e35e43" stop-opacity="1"></stop></linearGradient></defs><defs><linearGradient id="grad1_2" x1="43.8%" y1="0%" x2="100%" y2="100%"><stop offset="14.444444444444446%" stop-color="#f5957e" stop-opacity="1"></stop><stop offset="85.55555555555554%" stop-color="#e35e43" stop-opacity="1"></stop></linearGradient></defs><defs><linearGradient id="grad1_3" x1="43.8%" y1="0%" x2="100%" y2="100%"><stop offset="14.444444444444446%" stop-color="#f5957e" stop-opacity="1"></stop><stop offset="85.55555555555554%" stop-color="#ffcabd" stop-opacity="1"></stop></linearGradient></defs><defs><linearGradient id="grad1_4" x1="43.8%" y1="0%" x2="100%" y2="100%"><stop offset="14.444444444444446%" stop-color="#ffffff" stop-opacity="1"></stop><stop offset="85.55555555555554%" stop-color="#ffcabd" stop-opacity="1"></stop></linearGradient></defs><defs><linearGradient id="grad2_0" x1="0%" y1="0%" x2="56.3%" y2="100%"><stop offset="14.444444444444446%" stop-color="#cb0404" stop-opacity="1"></stop><stop offset="85.55555555555554%" stop-color="#cb0404" stop-opacity="1"></stop></linearGradient></defs><defs><linearGradient id="grad2_1" x1="0%" y1="0%" x2="56.3%" y2="100%"><stop offset="14.444444444444446%" stop-color="#e35e43" stop-opacity="1"></stop><stop offset="85.55555555555554%" stop-color="#cb0404" stop-opacity="1"></stop></linearGradient></defs><defs><linearGradient id="grad2_2" x1="0%" y1="0%" x2="56.3%" y2="100%"><stop offset="14.444444444444446%" stop-color="#e35e43" stop-opacity="1"></stop><stop offset="85.55555555555554%" stop-color="#f5957e" stop-opacity="1"></stop></linearGradient></defs><defs><linearGradient id="grad2_3" x1="0%" y1="0%" x2="56.3%" y2="100%"><stop offset="14.444444444444446%" stop-color="#ffcabd" stop-opacity="1"></stop><stop offset="85.55555555555554%" stop-color="#f5957e" stop-opacity="1"></stop></linearGradient></defs><defs><linearGradient id="grad2_4" x1="0%" y1="0%" x2="56.3%" y2="100%"><stop offset="14.444444444444446%" stop-color="#ffcabd" stop-opacity="1"></stop><stop offset="85.55555555555554%" stop-color="#ffffff" stop-opacity="1"></stop></linearGradient></defs><g transform="translate(960, 0)"><path d="M0 432C-37 406.3 -74.1 380.6 -121.1 372.8C-168.2 365.1 -225.2 375.3 -253.9 349.5C-282.7 323.7 -283.1 261.8 -304.2 221C-325.3 180.2 -367.1 160.6 -391.8 127.3C-416.6 94 -424.3 47 -432 0L0 0Z" fill="#ffe5dd"></path><path d="M0 345.6C-29.6 325 -59.3 304.4 -96.9 298.3C-134.5 292.1 -180.2 300.3 -203.1 279.6C-226.1 258.9 -226.5 209.4 -243.4 176.8C-260.2 144.2 -293.7 128.5 -313.5 101.9C-333.3 75.2 -339.4 37.6 -345.6 0L0 0Z" fill="#fbb09d"></path><path d="M0 259.2C-22.2 243.8 -44.5 228.3 -72.7 223.7C-100.9 219 -135.1 225.2 -152.4 209.7C-169.6 194.2 -169.8 157.1 -182.5 132.6C-195.2 108.1 -220.3 96.4 -235.1 76.4C-249.9 56.4 -254.6 28.2 -259.2 0L0 0Z" fill="#ed7a60"></path><path d="M0 172.8C-14.8 162.5 -29.6 152.2 -48.5 149.1C-67.3 146 -90.1 150.1 -101.6 139.8C-113.1 129.5 -113.2 104.7 -121.7 88.4C-130.1 72.1 -146.8 64.3 -156.7 50.9C-166.6 37.6 -169.7 18.8 -172.8 0L0 0Z" fill="#d83e26"></path><path d="M0 86.4C-7.4 81.3 -14.8 76.1 -24.2 74.6C-33.6 73 -45 75.1 -50.8 69.9C-56.5 64.7 -56.6 52.4 -60.8 44.2C-65.1 36 -73.4 32.1 -78.4 25.5C-83.3 18.8 -84.9 9.4 -86.4 0L0 0Z" fill="#cb0404"></path></g><g transform="translate(0, 540)"><path d="M0 -432C46.4 -430.3 92.9 -428.6 133.5 -410.9C174.1 -393.1 209 -359.4 235.1 -323.6C261.3 -287.8 278.7 -249.9 296.9 -215.7C315.1 -181.6 334 -151.2 356.6 -115.9C379.3 -80.6 405.6 -40.3 432 0L0 0Z" fill="#ffe5dd"></path><path d="M0 -345.6C37.1 -344.2 74.3 -342.9 106.8 -328.7C139.3 -314.5 167.2 -287.5 188.1 -258.9C209 -230.2 223 -199.9 237.5 -172.6C252.1 -145.3 267.2 -121 285.3 -92.7C303.4 -64.4 324.5 -32.2 345.6 0L0 0Z" fill="#fbb09d"></path><path d="M0 -259.2C27.9 -258.2 55.7 -257.1 80.1 -246.5C104.5 -235.9 125.4 -215.7 141.1 -194.2C156.8 -172.7 167.2 -149.9 178.1 -129.4C189.1 -108.9 200.4 -90.7 214 -69.5C227.6 -48.3 243.4 -24.2 259.2 0L0 0Z" fill="#ed7a60"></path><path d="M0 -172.8C18.6 -172.1 37.1 -171.4 53.4 -164.3C69.7 -157.3 83.6 -143.8 94 -129.4C104.5 -115.1 111.5 -99.9 118.8 -86.3C126 -72.6 133.6 -60.5 142.7 -46.4C151.7 -32.2 162.3 -16.1 172.8 0L0 0Z" fill="#d83e26"></path><path d="M0 -86.4C9.3 -86.1 18.6 -85.7 26.7 -82.2C34.8 -78.6 41.8 -71.9 47 -64.7C52.3 -57.6 55.7 -50 59.4 -43.1C63 -36.3 66.8 -30.2 71.3 -23.2C75.9 -16.1 81.1 -8.1 86.4 0L0 0Z" fill="#cb0404"></path></g></svg>