<svg id="Layer_1" data-name="Layer 1" xmlns="http://www.w3.org/2000/svg" viewBox="0 0 545.3 529.48"><defs><style>.cls-1{fill:#feba17;}</style></defs><path class="cls-1" d="M242.09,92.75c122.6-20.93,172.84,64.3,177.09,72l-.17-.31C392.92,116.5,350,81.09,295.24,73c-32.81-4.82-67.34-.7-98.62,10.17a153.23,153.23,0,0,0-15.43,6.31,3.89,3.89,0,0,1-1.5.36c-28.51,1-51.5,28.07-57.26,35.46a3.88,3.88,0,0,0-.49,3.92l2.18,5a3.88,3.88,0,0,1-.34,3.7c-.66,1-1.3,2-1.92,3a129.1,129.1,0,0,0-14.37,32,3.89,3.89,0,0,1-2.94,2.73l-3.67.77a2.35,2.35,0,0,1-.37.05c-21.88,2-21.26,41.42-20.47,54.21a3.88,3.88,0,0,0,4.2,3.62l18.66-1.62a3.86,3.86,0,0,1,4,2.77c3.42,12.08,16.79,36.51,16.79,36.51a3.87,3.87,0,0,1-.77,4.14l-15.51,16.33a3.89,3.89,0,0,0,.1,5.44A281.84,281.84,0,0,0,168.12,343a3.88,3.88,0,0,0,4.77-.86L185.26,328a3.88,3.88,0,0,1,4.64-.92,178.11,178.11,0,0,0,28.62,11c4.12,1.19,48.1,14.38,48.87,11.58,0,0,11.12-40.34,14.92-54.13a3.87,3.87,0,0,0-3.43-4.89c-52.32-4-116.8-23.3-129.64-82.77a81.23,81.23,0,0,1,.57-37.15C160.62,128.12,200.52,99.85,242.09,92.75Z"/><path class="cls-1" d="M419.18,164.72l.3.55S419.38,165.07,419.18,164.72Z"/><path class="cls-1" d="M283.5,425.18c-122.61,20.93-172.84-64.3-177.09-72l.17.3c26.09,47.91,69,83.32,123.76,91.37,32.82,4.83,67.35.71,98.63-10.16a155.52,155.52,0,0,0,15.42-6.32,3.89,3.89,0,0,1,1.5-.36c28.52-1,51.51-28.07,57.26-35.45a3.86,3.86,0,0,0,.49-3.92l-2.18-5a3.92,3.92,0,0,1,.35-3.71q1-1.47,1.92-3a129.79,129.79,0,0,0,14.37-32,3.87,3.87,0,0,1,2.93-2.74l3.68-.77.37-.05c21.88-2,21.25-41.42,20.47-54.2a3.86,3.86,0,0,0-4.2-3.62l-18.66,1.61a3.85,3.85,0,0,1-4.05-2.76c-3.42-12.08-16.8-36.52-16.8-36.52a3.88,3.88,0,0,1,.78-4.14l15.51-16.32A3.9,3.9,0,0,0,418,220a280.85,280.85,0,0,0-60.57-45.14,3.86,3.86,0,0,0-4.76.85l-12.37,14.17a3.9,3.9,0,0,1-4.64.92,179.47,179.47,0,0,0-28.62-11c-4.12-1.18-48.1-14.38-48.87-11.57,0,0-11.12,40.33-14.92,54.13a3.86,3.86,0,0,0,3.43,4.88c52.32,4,116.79,23.31,129.64,82.77a81.5,81.5,0,0,1-.57,37.15C365,389.8,325.07,418.08,283.5,425.18Z"/><path class="cls-1" d="M106.41,353.21l-.3-.56S106.21,352.85,106.41,353.21Z"/></svg>